<svg id="Delivery_Shipment.3" data-name="Delivery, Shipment.3" xmlns="http://www.w3.org/2000/svg" width="24" height="24" viewBox="0 0 24 24">
  <path id="Path_2187" data-name="Path 2187" d="M3,16.041V7.959A2,2,0,0,1,4,6.227l7-4.041a2,2,0,0,1,2,0l7,4.041a2,2,0,0,1,1,1.732v8.083a2,2,0,0,1-1,1.732l-7,4.041a2,2,0,0,1-2,0L4,17.774A2,2,0,0,1,3,16.041Z" fill="none" stroke="#323232" stroke-linecap="round" stroke-linejoin="round" stroke-width="1.2" fill-rule="evenodd"/>
  <path id="Path_2188" data-name="Path 2188" d="M16.49,12.86V9.4L7.5,4.206" fill="none" stroke="#323232" stroke-linecap="round" stroke-linejoin="round" stroke-width="1.2"/>
  <path id="Path_2189" data-name="Path 2189" d="M9.04,17,6,15.24" fill="none" stroke="#323232" stroke-linecap="round" stroke-linejoin="round" stroke-width="1.2" fill-rule="evenodd"/>
  <path id="Path_2190" data-name="Path 2190" d="M12,12V22.08" fill="none" stroke="#323232" stroke-linecap="round" stroke-linejoin="round" stroke-width="1.2"/>
  <path id="Path_2191" data-name="Path 2191" d="M3.268,6.959,12,12l8.732-5.041" fill="none" stroke="#323232" stroke-linecap="round" stroke-linejoin="round" stroke-width="1.2" fill-rule="evenodd"/>
  <path id="Path_2192" data-name="Path 2192" d="M0,0H24V24H0Z" fill="none"/>
</svg>
