<svg id="Discount_Сoupon.1" data-name="Discount, Сoupon.1" xmlns="http://www.w3.org/2000/svg" width="24" height="24" viewBox="0 0 24 24">
  <path id="Path_2176" data-name="Path 2176" d="M0,0H24V24H0Z" fill="none"/>
  <path id="Path_2177" data-name="Path 2177" d="M12.607,3.271l1.45-.709a1.381,1.381,0,0,1,1.827.594l.757,1.426a1.384,1.384,0,0,0,.982.713l1.59.279a1.381,1.381,0,0,1,1.129,1.554l-.226,1.6a1.381,1.381,0,0,0,.375,1.154l1.122,1.16a1.382,1.382,0,0,1,0,1.921l-1.122,1.16a1.381,1.381,0,0,0-.375,1.154l.226,1.6a1.381,1.381,0,0,1-1.129,1.554l-1.59.279a1.384,1.384,0,0,0-.982.713l-.757,1.426a1.382,1.382,0,0,1-1.827.594l-1.45-.709a1.382,1.382,0,0,0-1.213,0l-1.45.709a1.381,1.381,0,0,1-1.827-.594L7.36,19.418a1.384,1.384,0,0,0-.982-.713l-1.59-.279a1.381,1.381,0,0,1-1.129-1.554l.226-1.6A1.381,1.381,0,0,0,3.51,14.12L2.388,12.96a1.382,1.382,0,0,1,0-1.921L3.51,9.879a1.381,1.381,0,0,0,.375-1.154l-.225-1.6A1.38,1.38,0,0,1,4.789,5.574L6.379,5.3a1.384,1.384,0,0,0,.981-.713l.757-1.426a1.382,1.382,0,0,1,1.827-.594l1.45.709a1.382,1.382,0,0,0,1.213,0Z" fill="none" stroke="#e52525" stroke-linecap="round" stroke-linejoin="round" stroke-width="1.2"/>
  <path id="Path_2178" data-name="Path 2178" d="M8.221,10.46A1.3,1.3,0,0,1,9.467,9.5a1.319,1.319,0,0,1,1.319,1.319A1.181,1.181,0,0,1,9.605,12a1.181,1.181,0,0,1,1.181,1.181A1.319,1.319,0,0,1,9.467,14.5a1.3,1.3,0,0,1-1.246-.96" fill="none" stroke="#e52525" stroke-linecap="round" stroke-linejoin="round" stroke-width="1.2"/>
  <path id="Path_2179" data-name="Path 2179" d="M14.533,14.5h0a1.246,1.246,0,0,1-1.246-1.246V10.747A1.246,1.246,0,0,1,14.533,9.5h0a1.246,1.246,0,0,1,1.246,1.246v2.507A1.246,1.246,0,0,1,14.533,14.5Z" fill="none" stroke="#e52525" stroke-linecap="round" stroke-linejoin="round" stroke-width="1.2"/>
</svg>
