<svg id="Shopping_bag_Package_Pack.6" data-name="Shopping bag, Package, Pack.6" xmlns="http://www.w3.org/2000/svg" width="106.85" height="106.85" viewBox="0 0 106.85 106.85">
  <path id="Path_2160" data-name="Path 2160" d="M0,0H106.85V106.85H0Z" fill="none"/>
  <path id="Path_2161" data-name="Path 2161" d="M66.14,7H12.145A4.45,4.45,0,0,0,7.7,11.154L4.158,64.285a8.906,8.906,0,0,0,8.886,9.5h52.2a8.906,8.906,0,0,0,8.886-9.5L70.583,11.154A4.45,4.45,0,0,0,66.14,7Z" transform="translate(14.283 24.165)" fill="#24af67" stroke="#24af67" stroke-linecap="round" stroke-linejoin="round" stroke-width="3.5"/>
  <path id="Path_2162" data-name="Path 2162" d="M35.717,33.165V15.356h0A13.355,13.355,0,0,0,22.361,2h0A13.355,13.355,0,0,0,9,15.356H9V33.165" transform="translate(31.069 6.904)" fill="none" stroke="#24af67" stroke-linecap="round" stroke-linejoin="round" stroke-width="3.5"/>
  <path id="Path_2163" data-name="Path 2163" d="M10,12v4.452" transform="translate(34.521 41.425)" fill="none" stroke="#fff" stroke-linecap="round" stroke-linejoin="round" stroke-width="3.5"/>
  <path id="Path_2164" data-name="Path 2164" d="M14,12v4.452" transform="translate(48.329 41.425)" fill="none" stroke="#fff" stroke-linecap="round" stroke-linejoin="round" stroke-width="3.5"/>
  <path id="Path_2165" data-name="Path 2165" d="M39.665,16.688a23.342,23.342,0,0,1-15.582,5.841A23.328,23.328,0,0,1,8.5,16.688" transform="translate(29.343 57.608)" fill="none" stroke="#fff" stroke-linecap="round" stroke-linejoin="round" stroke-width="3.5"/>
</svg>
